<svg xmlns="http://www.w3.org/2000/svg" width="960" height="820" viewBox="0 0 960 820">
<rect width="100%" height="100%" fill="#f8f9fb"/>
<text x="24" y="30" font-size="20" font-family="Arial">Key parameter graph</text>
<text x="24" y="50" font-size="12" font-family="Arial">Time horizon: 0 to 300 minutes</text>
<rect x="20" y="70" width="920" height="170" fill="white" stroke="#cccccc"/>
<text x="28" y="90" font-size="14" font-family="Arial">Indoor temperature [C]</text>
<text x="28" y="108" font-size="12" font-family="Arial">min=15.00 C, max=43.69 C</text>
<line x1="75.00" y1="215.00" x2="925.00" y2="215.00" stroke="#444"/>
<line x1="75.00" y1="115.00" x2="75.00" y2="215.00" stroke="#444"/>
<polyline fill="none" stroke="#d62728" stroke-width="2" points="75,215 77.8333,212.416 80.6667,209.892 83.5,207.428 86.3333,205.022 89.1667,202.674 92,200.382 94.8333,198.145 97.6667,195.961 100.5,193.831 103.333,191.753 106.167,189.725 109,187.747 111.833,185.818 114.667,183.936 117.5,182.101 120.333,180.312 123.167,178.567 126,176.866 128.833,175.207 131.667,173.591 134.5,172.015 137.333,170.479 140.167,168.982 143,167.523 145.833,166.101 148.667,164.716 151.5,163.366 154.333,162.051 157.167,160.77 160,159.522 162.833,158.306 165.667,157.121 168.5,155.968 171.333,154.844 174.167,153.75 177,152.685 179.833,151.647 182.667,150.637 185.5,149.653 188.333,148.695 191.167,147.762 194,146.854 196.833,145.97 199.667,145.11 202.5,144.272 205.333,143.456 208.167,142.663 211,141.89 213.833,141.138 216.667,140.406 219.5,139.694 222.333,139 225.167,138.326 228,137.669 230.833,137.03 233.667,136.408 236.5,135.803 239.333,135.215 242.167,134.642 245,134.085 247.833,133.542 250.667,133.015 253.5,132.501 256.333,132.002 259.167,131.516 262,131.044 264.833,130.584 267.667,130.136 270.5,129.701 273.333,129.279 276.167,128.869 279,128.471 281.833,128.085 284.667,127.709 287.5,127.344 290.333,126.99 293.167,126.645 296,126.31 298.833,125.985 301.667,125.669 304.5,125.362 307.333,125.064 310.167,124.774 313,124.492 315.833,124.219 318.667,123.953 321.5,123.695 324.333,123.444 327.167,123.2 330,122.964 332.833,122.734 335.667,122.511 338.5,122.294 341.333,122.083 344.167,121.878 347,121.679 349.833,121.486 352.667,121.298 355.5,121.116 358.333,120.939 361.167,120.767 364,120.6 366.833,120.438 369.667,120.28 372.5,120.127 375.333,119.979 378.167,119.834 381,119.694 383.833,119.558 386.667,119.425 389.5,119.297 392.333,119.172 395.167,119.051 398,118.933 400.833,118.819 403.667,118.708 406.5,118.6 409.333,118.496 412.167,118.394 415,118.295 417.833,118.199 420.667,118.106 423.5,118.016 426.333,117.928 429.167,117.842 432,117.76 434.833,117.679 437.667,117.601 440.5,117.525 443.333,117.452 446.167,117.38 449,117.311 451.833,117.243 454.667,117.178 457.5,117.114 460.333,117.052 463.167,116.992 466,116.934 468.833,116.877 471.667,116.822 474.5,116.769 477.333,116.717 480.167,116.667 483,116.618 485.833,116.571 488.667,116.525 491.5,116.48 494.333,116.437 497.167,116.394 500,116.353 502.833,116.314 505.667,116.275 508.5,116.238 511.333,116.201 514.167,116.166 517,116.132 519.833,116.098 522.667,116.066 525.5,116.034 528.333,116.004 531.167,115.974 534,115.946 536.833,115.918 539.667,115.891 542.5,115.864 545.333,115.839 548.167,115.814 551,115.79 553.833,115.766 556.667,115.744 559.5,115.721 562.333,115.7 565.167,115.679 568,115.659 570.833,115.639 573.667,115.62 576.5,115.602 579.333,115.584 582.167,115.566 585,115.55 587.833,115.533 590.667,115.517 593.5,115.502 596.333,115.487 599.167,115.472 602,115.458 604.833,115.444 607.667,115.431 610.5,115.418 613.333,115.405 616.167,115.393 619,115.381 621.833,115.369 624.667,115.358 627.5,115.347 630.333,115.337 633.167,115.326 636,115.316 638.833,115.307 641.667,115.297 644.5,115.288 647.333,115.279 650.167,115.271 653,115.262 655.833,115.254 658.667,115.247 661.5,115.239 664.333,115.231 667.167,115.224 670,115.217 672.833,115.21 675.667,115.204 678.5,115.197 681.333,115.191 684.167,115.185 687,115.179 689.833,115.174 692.667,115.168 695.5,115.163 698.333,115.158 701.167,115.153 704,115.148 706.833,115.143 709.667,115.138 712.5,115.134 715.333,115.129 718.167,115.125 721,115.121 723.833,115.117 726.667,115.113 729.5,115.109 732.333,115.106 735.167,115.102 738,115.099 740.833,115.095 743.667,115.092 746.5,115.089 749.333,115.086 752.167,115.083 755,115.08 757.833,115.077 760.667,115.075 763.5,115.072 766.333,115.069 769.167,115.067 772,115.064 774.833,115.062 777.667,115.06 780.5,115.058 783.333,115.055 786.167,115.053 789,115.051 791.833,115.049 794.667,115.047 797.5,115.046 800.333,115.044 803.167,115.042 806,115.04 808.833,115.039 811.667,115.037 814.5,115.035 817.333,115.034 820.167,115.033 823,115.031 825.833,115.03 828.667,115.028 831.5,115.027 834.333,115.026 837.167,115.025 840,115.023 842.833,115.022 845.667,115.021 848.5,115.02 851.333,115.019 854.167,115.018 857,115.017 859.833,115.016 862.667,115.015 865.5,115.014 868.333,115.013 871.167,115.012 874,115.012 876.833,115.011 879.667,115.01 882.5,115.009 885.333,115.008 888.167,115.008 891,115.007 893.833,115.006 896.667,115.006 899.5,115.005 902.333,115.004 905.167,115.004 908,115.003 910.833,115.003 913.667,115.002 916.5,115.002 919.333,115.001 922.167,115 925,115"/>
<text x="35.00" y="127.00" font-size="11" font-family="Arial">43.69</text>
<text x="35.00" y="215.00" font-size="11" font-family="Arial">15.00</text>
<text x="865.00" y="235.00" font-size="11" font-family="Arial">time [min]</text>
<rect x="20.00" y="260.00" width="920.00" height="170.00" fill="white" stroke="#cccccc"/>
<text x="28.00" y="280.00" font-size="14" font-family="Arial">Outdoor temperature [C]</text>
<text x="28.00" y="298.00" font-size="12" font-family="Arial">min=15.00 C, max=43.69 C</text>
<line x1="75.00" y1="405.00" x2="925.00" y2="405.00" stroke="#444"/>
<line x1="75.00" y1="305.00" x2="75.00" y2="405.00" stroke="#444"/>
<polyline fill="none" stroke="#1f77b4" stroke-width="2" points="75,335.281 77.8333,335.281 80.6667,335.281 83.5,335.281 86.3333,335.281 89.1667,335.281 92,335.281 94.8333,335.281 97.6667,335.281 100.5,335.281 103.333,335.281 106.167,335.281 109,335.281 111.833,335.281 114.667,335.281 117.5,335.281 120.333,335.281 123.167,335.281 126,335.281 128.833,335.281 131.667,335.281 134.5,335.281 137.333,335.281 140.167,335.281 143,335.281 145.833,335.281 148.667,335.281 151.5,335.281 154.333,335.281 157.167,335.281 160,335.281 162.833,335.281 165.667,335.281 168.5,335.281 171.333,335.281 174.167,335.281 177,335.281 179.833,335.281 182.667,335.281 185.5,335.281 188.333,335.281 191.167,335.281 194,335.281 196.833,335.281 199.667,335.281 202.5,335.281 205.333,335.281 208.167,335.281 211,335.281 213.833,335.281 216.667,335.281 219.5,335.281 222.333,335.281 225.167,335.281 228,335.281 230.833,335.281 233.667,335.281 236.5,335.281 239.333,335.281 242.167,335.281 245,335.281 247.833,335.281 250.667,335.281 253.5,335.281 256.333,335.281 259.167,335.281 262,335.281 264.833,335.281 267.667,335.281 270.5,335.281 273.333,335.281 276.167,335.281 279,335.281 281.833,335.281 284.667,335.281 287.5,335.281 290.333,335.281 293.167,335.281 296,335.281 298.833,335.281 301.667,335.281 304.5,335.281 307.333,335.281 310.167,335.281 313,335.281 315.833,335.281 318.667,335.281 321.5,335.281 324.333,335.281 327.167,335.281 330,335.281 332.833,335.281 335.667,335.281 338.5,335.281 341.333,335.281 344.167,335.281 347,335.281 349.833,335.281 352.667,335.281 355.5,335.281 358.333,335.281 361.167,335.281 364,335.281 366.833,335.281 369.667,335.281 372.5,335.281 375.333,335.281 378.167,335.281 381,335.281 383.833,335.281 386.667,335.281 389.5,335.281 392.333,335.281 395.167,335.281 398,335.281 400.833,335.281 403.667,335.281 406.5,335.281 409.333,335.281 412.167,335.281 415,335.281 417.833,335.281 420.667,335.281 423.5,335.281 426.333,335.281 429.167,335.281 432,335.281 434.833,335.281 437.667,335.281 440.5,335.281 443.333,335.281 446.167,335.281 449,335.281 451.833,335.281 454.667,335.281 457.5,335.281 460.333,335.281 463.167,335.281 466,335.281 468.833,335.281 471.667,335.281 474.5,335.281 477.333,335.281 480.167,335.281 483,335.281 485.833,335.281 488.667,335.281 491.5,335.281 494.333,335.281 497.167,335.281 500,335.281 502.833,335.281 505.667,335.281 508.5,335.281 511.333,335.281 514.167,335.281 517,335.281 519.833,335.281 522.667,335.281 525.5,335.281 528.333,335.281 531.167,335.281 534,335.281 536.833,335.281 539.667,335.281 542.5,335.281 545.333,335.281 548.167,335.281 551,335.281 553.833,335.281 556.667,335.281 559.5,335.281 562.333,335.281 565.167,335.281 568,335.281 570.833,335.281 573.667,335.281 576.5,335.281 579.333,335.281 582.167,335.281 585,335.281 587.833,335.281 590.667,335.281 593.5,335.281 596.333,335.281 599.167,335.281 602,335.281 604.833,335.281 607.667,335.281 610.5,335.281 613.333,335.281 616.167,335.281 619,335.281 621.833,335.281 624.667,335.281 627.5,335.281 630.333,335.281 633.167,335.281 636,335.281 638.833,335.281 641.667,335.281 644.5,335.281 647.333,335.281 650.167,335.281 653,335.281 655.833,335.281 658.667,335.281 661.5,335.281 664.333,335.281 667.167,335.281 670,335.281 672.833,335.281 675.667,335.281 678.5,335.281 681.333,335.281 684.167,335.281 687,335.281 689.833,335.281 692.667,335.281 695.5,335.281 698.333,335.281 701.167,335.281 704,335.281 706.833,335.281 709.667,335.281 712.5,335.281 715.333,335.281 718.167,335.281 721,335.281 723.833,335.281 726.667,335.281 729.5,335.281 732.333,335.281 735.167,335.281 738,335.281 740.833,335.281 743.667,335.281 746.5,335.281 749.333,335.281 752.167,335.281 755,335.281 757.833,335.281 760.667,335.281 763.5,335.281 766.333,335.281 769.167,335.281 772,335.281 774.833,335.281 777.667,335.281 780.5,335.281 783.333,335.281 786.167,335.281 789,335.281 791.833,335.281 794.667,335.281 797.5,335.281 800.333,335.281 803.167,335.281 806,335.281 808.833,335.281 811.667,335.281 814.5,335.281 817.333,335.281 820.167,335.281 823,335.281 825.833,335.281 828.667,335.281 831.5,335.281 834.333,335.281 837.167,335.281 840,335.281 842.833,335.281 845.667,335.281 848.5,335.281 851.333,335.281 854.167,335.281 857,335.281 859.833,335.281 862.667,335.281 865.5,335.281 868.333,335.281 871.167,335.281 874,335.281 876.833,335.281 879.667,335.281 882.5,335.281 885.333,335.281 888.167,335.281 891,335.281 893.833,335.281 896.667,335.281 899.5,335.281 902.333,335.281 905.167,335.281 908,335.281 910.833,335.281 913.667,335.281 916.5,335.281 919.333,335.281 922.167,335.281 925,335.281"/>
<text x="35.00" y="317.00" font-size="11" font-family="Arial">43.69</text>
<text x="35.00" y="405.00" font-size="11" font-family="Arial">15.00</text>
<text x="865.00" y="425.00" font-size="11" font-family="Arial">time [min]</text>
<rect x="20.00" y="450.00" width="920.00" height="170.00" fill="white" stroke="#cccccc"/>
<text x="28.00" y="470.00" font-size="14" font-family="Arial">Indoor relative humidity [%]</text>
<text x="28.00" y="488.00" font-size="12" font-family="Arial">min=32.80 %, max=60.00 %</text>
<line x1="75.00" y1="595.00" x2="925.00" y2="595.00" stroke="#444"/>
<line x1="75.00" y1="495.00" x2="75.00" y2="595.00" stroke="#444"/>
<polyline fill="none" stroke="#2ca02c" stroke-width="2" points="75,495 77.8333,500.421 80.6667,505.55 83.5,510.403 86.3333,514.997 89.1667,519.347 92,523.466 94.8333,527.369 97.6667,531.067 100.5,534.573 103.333,537.897 106.167,541.049 109,544.039 111.833,546.876 114.667,549.568 117.5,552.124 120.333,554.55 123.167,556.853 126,559.04 128.833,561.117 131.667,563.09 134.5,564.964 137.333,566.744 140.167,568.434 143,570.04 145.833,571.566 148.667,573.014 151.5,574.39 154.333,575.696 157.167,576.936 160,578.112 162.833,579.229 165.667,580.288 168.5,581.293 171.333,582.245 174.167,583.147 177,584.001 179.833,584.81 182.667,585.575 185.5,586.299 188.333,586.982 191.167,587.627 194,588.236 196.833,588.809 199.667,589.348 202.5,589.855 205.333,590.331 208.167,590.778 211,591.196 213.833,591.586 216.667,591.95 219.5,592.289 222.333,592.603 225.167,592.894 228,593.163 230.833,593.41 233.667,593.636 236.5,593.842 239.333,594.029 242.167,594.197 245,594.347 247.833,594.481 250.667,594.597 253.5,594.698 256.333,594.784 259.167,594.854 262,594.911 264.833,594.954 267.667,594.983 270.5,595 273.333,594.994 276.167,594.969 279,594.929 281.833,594.874 284.667,594.807 287.5,594.727 290.333,594.636 293.167,594.533 296,594.42 298.833,594.297 301.667,594.165 304.5,594.024 307.333,593.874 310.167,593.716 313,593.55 315.833,593.376 318.667,593.195 321.5,593.008 324.333,592.814 327.167,592.613 330,592.407 332.833,592.195 335.667,591.977 338.5,591.754 341.333,591.526 344.167,591.294 347,591.057 349.833,590.815 352.667,590.57 355.5,590.32 358.333,590.067 361.167,589.81 364,589.55 366.833,589.286 369.667,589.02 372.5,588.75 375.333,588.478 378.167,588.203 381,587.926 383.833,587.646 386.667,587.364 389.5,587.08 392.333,586.794 395.167,586.506 398,586.217 400.833,585.926 403.667,585.633 406.5,585.339 409.333,585.044 412.167,584.748 415,584.45 417.833,584.152 420.667,583.852 423.5,583.552 426.333,583.251 429.167,582.95 432,582.647 434.833,582.345 437.667,582.042 440.5,581.738 443.333,581.434 446.167,581.13 449,580.826 451.833,580.522 454.667,580.218 457.5,579.914 460.333,579.61 463.167,579.306 466,579.002 468.833,578.698 471.667,578.395 474.5,578.092 477.333,577.789 480.167,577.487 483,577.186 485.833,576.885 488.667,576.584 491.5,576.284 494.333,575.985 497.167,575.686 500,575.388 502.833,575.091 505.667,574.795 508.5,574.499 511.333,574.204 514.167,573.91 517,573.617 519.833,573.325 522.667,573.034 525.5,572.743 528.333,572.454 531.167,572.166 534,571.879 536.833,571.593 539.667,571.308 542.5,571.024 545.333,570.741 548.167,570.459 551,570.178 553.833,569.899 556.667,569.621 559.5,569.344 562.333,569.068 565.167,568.793 568,568.52 570.833,568.248 573.667,567.977 576.5,567.707 579.333,567.439 582.167,567.172 585,566.906 587.833,566.641 590.667,566.378 593.5,566.116 596.333,565.856 599.167,565.597 602,565.339 604.833,565.082 607.667,564.827 610.5,564.574 613.333,564.321 616.167,564.07 619,563.82 621.833,563.572 624.667,563.325 627.5,563.079 630.333,562.835 633.167,562.592 636,562.351 638.833,562.111 641.667,561.872 644.5,561.635 647.333,561.399 650.167,561.165 653,560.931 655.833,560.7 658.667,560.469 661.5,560.24 664.333,560.013 667.167,559.786 670,559.562 672.833,559.338 675.667,559.116 678.5,558.895 681.333,558.676 684.167,558.458 687,558.241 689.833,558.026 692.667,557.812 695.5,557.599 698.333,557.388 701.167,557.178 704,556.97 706.833,556.762 709.667,556.556 712.5,556.352 715.333,556.149 718.167,555.947 721,555.746 723.833,555.547 726.667,555.349 729.5,555.152 732.333,554.957 735.167,554.763 738,554.57 740.833,554.378 743.667,554.188 746.5,553.999 749.333,553.811 752.167,553.625 755,553.44 757.833,553.256 760.667,553.073 763.5,552.892 766.333,552.711 769.167,552.532 772,552.355 774.833,552.178 777.667,552.003 780.5,551.828 783.333,551.655 786.167,551.484 789,551.313 791.833,551.144 794.667,550.975 797.5,550.808 800.333,550.642 803.167,550.477 806,550.314 808.833,550.151 811.667,549.99 814.5,549.83 817.333,549.671 820.167,549.513 823,549.356 825.833,549.2 828.667,549.045 831.5,548.892 834.333,548.739 837.167,548.588 840,548.437 842.833,548.288 845.667,548.14 848.5,547.992 851.333,547.846 854.167,547.701 857,547.557 859.833,547.414 862.667,547.272 865.5,547.131 868.333,546.991 871.167,546.852 874,546.714 876.833,546.577 879.667,546.441 882.5,546.306 885.333,546.172 888.167,546.038 891,545.906 893.833,545.775 896.667,545.645 899.5,545.515 902.333,545.387 905.167,545.259 908,545.133 910.833,545.007 913.667,544.882 916.5,544.759 919.333,544.636 922.167,544.514 925,544.392"/>
<text x="35.00" y="507.00" font-size="11" font-family="Arial">60.00</text>
<text x="35.00" y="595.00" font-size="11" font-family="Arial">32.80</text>
<text x="865.00" y="615.00" font-size="11" font-family="Arial">time [min]</text>
<rect x="20.00" y="640.00" width="920.00" height="160.00" fill="white" stroke="#cccccc"/>
<text x="28.00" y="660.00" font-size="14" font-family="Arial">Total airflow [m3/s]</text>
<text x="28.00" y="678.00" font-size="12" font-family="Arial">min=0.01 m3/s, max=0.11 m3/s</text>
<line x1="75.00" y1="775.00" x2="925.00" y2="775.00" stroke="#444"/>
<line x1="75.00" y1="685.00" x2="75.00" y2="775.00" stroke="#444"/>
<polyline fill="none" stroke="#9467bd" stroke-width="2" points="75,692.778 77.8333,692.778 80.6667,692.778 83.5,692.778 86.3333,692.778 89.1667,692.778 92,692.778 94.8333,692.778 97.6667,692.778 100.5,692.778 103.333,692.778 106.167,692.778 109,692.778 111.833,692.778 114.667,692.778 117.5,692.778 120.333,692.778 123.167,692.778 126,692.778 128.833,692.778 131.667,692.778 134.5,692.778 137.333,692.778 140.167,692.778 143,692.778 145.833,692.778 148.667,692.778 151.5,692.778 154.333,692.778 157.167,692.778 160,692.778 162.833,692.778 165.667,692.778 168.5,692.778 171.333,692.778 174.167,692.778 177,692.778 179.833,692.778 182.667,692.778 185.5,692.778 188.333,692.778 191.167,692.778 194,692.778 196.833,692.778 199.667,692.778 202.5,692.778 205.333,692.778 208.167,692.778 211,692.778 213.833,692.778 216.667,692.778 219.5,692.778 222.333,692.778 225.167,692.778 228,692.778 230.833,692.778 233.667,692.778 236.5,692.778 239.333,692.778 242.167,692.778 245,692.778 247.833,692.778 250.667,692.778 253.5,692.778 256.333,692.778 259.167,692.778 262,692.778 264.833,692.778 267.667,692.778 270.5,691.728 273.333,691.099 276.167,690.66 279,690.308 281.833,690.008 284.667,689.745 287.5,689.51 290.333,689.297 293.167,689.101 296,688.921 298.833,688.754 301.667,688.598 304.5,688.451 307.333,688.314 310.167,688.184 313,688.062 315.833,687.946 318.667,687.836 321.5,687.731 324.333,687.632 327.167,687.537 330,687.447 332.833,687.36 335.667,687.277 338.5,687.198 341.333,687.123 344.167,687.05 347,686.98 349.833,686.913 352.667,686.849 355.5,686.787 358.333,686.728 361.167,686.671 364,686.616 366.833,686.563 369.667,686.512 372.5,686.463 375.333,686.416 378.167,686.37 381,686.326 383.833,686.284 386.667,686.243 389.5,686.204 392.333,686.166 395.167,686.129 398,686.093 400.833,686.059 403.667,686.026 406.5,685.994 409.333,685.963 412.167,685.933 415,685.904 417.833,685.876 420.667,685.849 423.5,685.822 426.333,685.797 429.167,685.772 432,685.749 434.833,685.726 437.667,685.703 440.5,685.682 443.333,685.661 446.167,685.641 449,685.621 451.833,685.602 454.667,685.584 457.5,685.566 460.333,685.549 463.167,685.532 466,685.516 468.833,685.501 471.667,685.486 474.5,685.471 477.333,685.457 480.167,685.443 483,685.429 485.833,685.417 488.667,685.404 491.5,685.392 494.333,685.38 497.167,685.369 500,685.357 502.833,685.347 505.667,685.336 508.5,685.326 511.333,685.316 514.167,685.307 517,685.298 519.833,685.289 522.667,685.28 525.5,685.272 528.333,685.263 531.167,685.256 534,685.248 536.833,685.24 539.667,685.233 542.5,685.226 545.333,685.219 548.167,685.213 551,685.206 553.833,685.2 556.667,685.194 559.5,685.188 562.333,685.183 565.167,685.177 568,685.172 570.833,685.167 573.667,685.162 576.5,685.157 579.333,685.152 582.167,685.147 585,685.143 587.833,685.139 590.667,685.134 593.5,685.13 596.333,685.126 599.167,685.123 602,685.119 604.833,685.115 607.667,685.112 610.5,685.108 613.333,685.105 616.167,685.102 619,685.099 621.833,685.096 624.667,685.093 627.5,685.09 630.333,685.087 633.167,685.085 636,685.082 638.833,685.079 641.667,685.077 644.5,685.075 647.333,685.072 650.167,685.07 653,685.068 655.833,685.066 658.667,685.064 661.5,685.062 664.333,685.06 667.167,685.058 670,685.056 672.833,685.054 675.667,685.053 678.5,685.051 681.333,685.049 684.167,685.048 687,685.046 689.833,685.045 692.667,685.043 695.5,685.042 698.333,685.041 701.167,685.039 704,685.038 706.833,685.037 709.667,685.036 712.5,685.034 715.333,685.033 718.167,685.032 721,685.031 723.833,685.03 726.667,685.029 729.5,685.028 732.333,685.027 735.167,685.026 738,685.025 740.833,685.025 743.667,685.024 746.5,685.023 749.333,685.022 752.167,685.021 755,685.021 757.833,685.02 760.667,685.019 763.5,685.018 766.333,685.018 769.167,685.017 772,685.017 774.833,685.016 777.667,685.015 780.5,685.015 783.333,685.014 786.167,685.014 789,685.013 791.833,685.013 794.667,685.012 797.5,685.012 800.333,685.011 803.167,685.011 806,685.01 808.833,685.01 811.667,685.009 814.5,685.009 817.333,685.009 820.167,685.008 823,685.008 825.833,685.008 828.667,685.007 831.5,685.007 834.333,685.007 837.167,685.006 840,685.006 842.833,685.006 845.667,685.005 848.5,685.005 851.333,685.005 854.167,685.004 857,685.004 859.833,685.004 862.667,685.004 865.5,685.004 868.333,685.003 871.167,685.003 874,685.003 876.833,685.003 879.667,685.002 882.5,685.002 885.333,685.002 888.167,685.002 891,685.002 893.833,685.001 896.667,685.001 899.5,685.001 902.333,685.001 905.167,685.001 908,685.001 910.833,685.001 913.667,685 916.5,685 919.333,685 922.167,685 925,775"/>
<text x="35.00" y="697.00" font-size="11" font-family="Arial">0.11</text>
<text x="35.00" y="775.00" font-size="11" font-family="Arial">0.01</text>
<text x="865.00" y="795.00" font-size="11" font-family="Arial">time [min]</text>
</svg>
